# xmcd
#
# Track frame offsets:
#	150
#	14637
#	28226
#	43196
#	57897
#	75447
#	90151
#	105009
#	119962
#	134256
#	147776
#	160565
#	176106
#	190483
#	204314
#	219797
#
# Disc length: 3123 seconds
#
# Revision: 0
# Processed by: cddbd v1.5.2PL0 Copyright (c) Steve Scherf et al.
# Submitted via: EasyCDDAExtractor 16.0.6.1
#
DISCID=d30c3110
DTITLE=Μπέλλου Σωτηρία - Ογδόντα μεγάλες επιτυχίες-Σ. Μπέλλου 3
DYEAR=2010
DGENRE=Ποικίλη
TTITLE0=Αλήτη μ' είπες μιά βραδιά [Απ. Χατζηχρήστος]
TTITLE1=Ζούσα μοναχός χωρίς αγάπη [Δημ. Γκόγκος ή Μπαγιαντέρας]
TTITLE2=Τα καβουράκια [Βασ. Τσιτσάνης]
TTITLE3=Τι σού λέει η μάννα σου για μένα [Κ. Σκαρβέλης]
TTITLE4=Καρδιά παραπονιάρα [Απ. Χατζηχρήστος-Γ. Λελάκης]
TTITLE5=Χωρίσαμε ένα δειλινό [Βασ. Τσιτσάνης]
TTITLE6=Ο μεμέτης [Θεόδ. Δερβενιώτης-Κ. Βίρβος]
TTITLE7=Η κοινωνία [Βασ. Καραπατάκης-Χρ. Κολοκοτρώνης]
TTITLE8=Όταν συμβεί στα πέριξ [Βασ. Τσιτσάνης]
TTITLE9=Ο πασάς [Απ. Χατζηχρήστος]
TTITLE10=Ένας σατράπης θηλυκός [Γ. Παπαϊωάννου]
TTITLE11=Άσχημες πληροφορίες [Τόλης Χάρμας]
TTITLE12=Μ' έχεις κάνει σαν κουρέλι [Κων. Καρίπης-Βασ. Ταμβάκης]
TTITLE13=Γράμμα θα στείλω στον Θεό [Μ. Μπακάλης-Αλέκος Γκούβερης]
TTITLE14=Πλατεία Βάθης [Ηλ. Ανδριόπουλος-Μιχ. Μπουρμπούλης]
TTITLE15=Ο άη λαός [Δημ. Λάγιος-Μιχ. Μπουρμπούλης]
EXTD=
EXTT0=
EXTT1=
EXTT2=
EXTT3=
EXTT4=
EXTT5=
EXTT6=
EXTT7=
EXTT8=
EXTT9=
EXTT10=
EXTT11=
EXTT12=
EXTT13=
EXTT14=
EXTT15=
PLAYORDER=
